<?xml version="1.0" encoding="utf-8"?>
<!-- Generator: Adobe Illustrator 18.0.0, SVG Export Plug-In . SVG Version: 6.00 Build 0)  -->
<!DOCTYPE svg PUBLIC "-//W3C//DTD SVG 1.1//EN" "http://www.w3.org/Graphics/SVG/1.1/DTD/svg11.dtd">
<svg version="1.1" xmlns="http://www.w3.org/2000/svg" xmlns:xlink="http://www.w3.org/1999/xlink" x="0px" y="0px"
	 viewBox="0 0 109.4 109.7" enable-background="new 0 0 109.4 109.7" xml:space="preserve">
<g id="Calque_1" display="none">
	<circle display="inline" fill="#324B7E" cx="54.6" cy="54.8" r="54.8"/>
	<circle display="inline" fill="#324B7E" cx="54.6" cy="54.8" r="54.8"/>
	<path display="inline" fill="#F1F2F2" d="M68.5,54.9h-9.1v32.4H45.9V54.9h-6.4V43.4h6.4V36c0-5.3,2.5-13.6,13.6-13.6l10,0v11.1
		h-7.2c-1.2,0-2.9,0.6-2.9,3.1v6.7h10.3L68.5,54.9z M68.5,54.9"/>
</g>
<g id="Calque_2" display="none">
	<circle display="inline" fill="#E4302B" cx="55" cy="55.5" r="54.8"/>
	<g display="inline">
		<path fill-rule="evenodd" clip-rule="evenodd" fill="#F1F2F2" d="M87.8,42.3c0-5.4-4.4-9.8-9.8-9.8H32c-5.4,0-9.8,4.4-9.8,9.8
			v26.3c0,5.4,4.4,9.8,9.8,9.8h46c5.4,0,9.8-4.4,9.8-9.8V42.3z M48.4,66.5V41.9l18.7,12.3L48.4,66.5z M48.4,66.5"/>
	</g>
</g>
<g id="Calque_3">
	<circle fill="#349DC3" cx="55.1" cy="55" r="54.8"/>
	<g>
		<path fill="#F1F2F2" d="M88.9,34.1c-2.5,1.1-5.2,1.9-8,2.2c2.9-1.7,5.1-4.4,6.1-7.7c-2.7,1.6-5.7,2.7-8.8,3.4
			c-2.5-2.7-6.1-4.4-10.1-4.4c-7.7,0-13.9,6.2-13.9,13.9c0,1.1,0.1,2.1,0.4,3.2C43,44,32.8,38.5,25.9,30.1c-1.2,2.1-1.9,4.4-1.9,7
			c0,4.8,2.5,9.1,6.2,11.6c-2.3-0.1-4.4-0.7-6.3-1.7c0,0.1,0,0.1,0,0.2c0,6.7,4.8,12.3,11.1,13.6c-1.2,0.3-2.4,0.5-3.7,0.5
			c-0.9,0-1.8-0.1-2.6-0.2c1.8,5.5,6.9,9.5,13,9.6C37,74.3,31,76.5,24.5,76.5c-1.1,0-2.2-0.1-3.3-0.2c6.1,3.9,13.4,6.2,21.3,6.2
			C68.1,82.5,82,61.4,82,43c0-0.6,0-1.2,0-1.8C84.7,39.3,87.1,36.8,88.9,34.1L88.9,34.1z M88.9,34.1"/>
	</g>
</g>
</svg>
