<?xml version="1.0" encoding="utf-8"?>
<!-- Generator: Adobe Illustrator 18.0.0, SVG Export Plug-In . SVG Version: 6.00 Build 0)  -->
<!DOCTYPE svg PUBLIC "-//W3C//DTD SVG 1.1//EN" "http://www.w3.org/Graphics/SVG/1.1/DTD/svg11.dtd">
<svg version="1.1" xmlns="http://www.w3.org/2000/svg" xmlns:xlink="http://www.w3.org/1999/xlink" x="0px" y="0px"
	 viewBox="0 0 109.4 109.7" enable-background="new 0 0 109.4 109.7" xml:space="preserve">
<g id="Calque_1" display="none">
	<circle display="inline" fill="#324B7E" cx="54.6" cy="54.8" r="54.8"/>
	<circle display="inline" fill="#324B7E" cx="54.6" cy="54.8" r="54.8"/>
	<path display="inline" fill="#F1F2F2" d="M68.5,54.9h-9.1v32.4H45.9V54.9h-6.4V43.4h6.4V36c0-5.3,2.5-13.6,13.6-13.6l10,0v11.1
		h-7.2c-1.2,0-2.9,0.6-2.9,3.1v6.7h10.3L68.5,54.9z M68.5,54.9"/>
</g>
<g id="Calque_2">
	<circle fill="#E4302B" cx="55" cy="55.5" r="54.8"/>
	<g>
		<path fill-rule="evenodd" clip-rule="evenodd" fill="#F1F2F2" d="M87.8,42.3c0-5.4-4.4-9.8-9.8-9.8H32c-5.4,0-9.8,4.4-9.8,9.8
			v26.3c0,5.4,4.4,9.8,9.8,9.8h46c5.4,0,9.8-4.4,9.8-9.8V42.3z M48.4,66.5V41.9l18.7,12.3L48.4,66.5z M48.4,66.5"/>
	</g>
</g>
</svg>
