<?xml version="1.0" encoding="utf-8"?>
<!-- Generator: Adobe Illustrator 18.0.0, SVG Export Plug-In . SVG Version: 6.00 Build 0)  -->
<!DOCTYPE svg PUBLIC "-//W3C//DTD SVG 1.1//EN" "http://www.w3.org/Graphics/SVG/1.1/DTD/svg11.dtd">
<svg version="1.1" xmlns="http://www.w3.org/2000/svg" xmlns:xlink="http://www.w3.org/1999/xlink" x="0px" y="0px"
	 viewBox="0 0 446.8 82.6" enable-background="new 0 0 446.8 82.6" xml:space="preserve">
<g id="Calque_2">
</g>
<g id="Calque_1">
	<rect x="3.1" y="3" stroke="#DDDDDD" stroke-width="6" stroke-miterlimit="10" width="440.7" height="76.7"/>
	<g>
		<path fill="#F00000" d="M40.6,39.7l22.1,29.4H44.5L29.2,50.3v18.8H13.8V13.2h15.3V32l15.3-18.8h18.9L40.6,39.7z"/>
		<path fill="#FFFFFF" d="M69,69.1V13.2h15v55.9H69z"/>
		<path fill="#FFFFFF" d="M130.2,39c0,4.4-0.9,8.6-2.6,12.4c-1.7,3.9-4,7.2-6.9,10.1c-2.9,2.9-6.3,5.1-10.3,6.8
			c-3.9,1.7-8.1,2.5-12.5,2.5c-1.1,0-2.2-0.1-3.3-0.2c-1.1-0.1-2.3-0.3-3.6-0.5l2.9-14.3c0.7,0.1,1.4,0.2,1.9,0.3
			c0.6,0,1.1,0.1,1.7,0.1c2.4,0,4.8-0.5,6.9-1.4c2.2-0.9,4.1-2.2,5.7-3.8c1.6-1.6,2.9-3.5,3.9-5.6c0.9-2.2,1.4-4.5,1.4-6.9V13.2
			h14.8V39z"/>
	</g>
	<g>
		<path fill="#FFFFFF" d="M163.5,70.8c-4.1,0-8-0.8-11.6-2.3c-3.6-1.5-6.7-3.6-9.4-6.3c-2.7-2.7-4.8-5.8-6.4-9.4
			c-1.6-3.6-2.3-7.4-2.3-11.5c0-4.1,0.8-7.9,2.3-11.5c1.6-3.6,3.7-6.7,6.4-9.4c2.7-2.7,5.8-4.8,9.4-6.3c3.6-1.6,7.5-2.3,11.6-2.3
			c4.1,0,7.9,0.8,11.6,2.3c3.6,1.6,6.8,3.7,9.5,6.3c2.7,2.7,4.8,5.8,6.4,9.4c1.6,3.6,2.3,7.4,2.3,11.5c0,4.1-0.8,7.9-2.3,11.5
			c-1.6,3.6-3.7,6.7-6.4,9.4c-2.7,2.7-5.8,4.8-9.5,6.3C171.4,70.1,167.6,70.8,163.5,70.8z M163.5,26c-2.1,0-4.1,0.4-5.9,1.3
			c-1.8,0.8-3.3,2-4.6,3.3s-2.3,3-3.1,4.9c-0.7,1.8-1.1,3.8-1.1,5.9c0,2,0.4,4,1.1,5.8c0.7,1.9,1.8,3.5,3.1,4.9
			c1.3,1.4,2.8,2.5,4.6,3.3s3.8,1.3,5.9,1.3c2.1,0,4.1-0.4,5.9-1.3c1.8-0.8,3.3-2,4.6-3.3c1.3-1.4,2.3-3,3.1-4.9
			c0.7-1.9,1.1-3.8,1.1-5.8c0-2.1-0.4-4-1.1-5.9c-0.7-1.8-1.8-3.5-3.1-4.9s-2.8-2.5-4.6-3.3C167.6,26.4,165.6,26,163.5,26z"/>
	</g>
	
		<rect x="155.4" y="14.7" transform="matrix(0.7071 0.7071 -0.7071 0.7071 77.3641 -102.7993)" fill="#FFFFFF" width="14.7" height="54.6"/>
	<rect x="178.9" y="20.3" transform="matrix(0.7071 0.7071 -0.7071 0.7071 79.0245 -116.7812)" width="3.3" height="33.3"/>
	<g>
		<path fill="#FFFFFF" d="M251.4,69.1h-12L230.5,45l-8.9,24.1h-12l-20.6-55.7h16.1l10.4,28.2l10.4-28.2h8.9l10.4,28.2l10.4-28.2H272
			L251.4,69.1z"/>
		<path fill="#FFFFFF" d="M300.3,70.8c-4.1,0-8-0.8-11.6-2.3c-3.6-1.5-6.7-3.6-9.4-6.3c-2.7-2.7-4.8-5.8-6.4-9.4
			c-1.6-3.6-2.3-7.4-2.3-11.5c0-4.1,0.8-7.9,2.3-11.5c1.6-3.6,3.7-6.7,6.4-9.4c2.7-2.7,5.8-4.8,9.4-6.3c3.6-1.6,7.5-2.3,11.6-2.3
			c4.1,0,7.9,0.8,11.6,2.3c3.6,1.6,6.8,3.7,9.5,6.3c2.7,2.7,4.8,5.8,6.4,9.4c1.6,3.6,2.3,7.4,2.3,11.5c0,4.1-0.8,7.9-2.3,11.5
			c-1.6,3.6-3.7,6.7-6.4,9.4c-2.7,2.7-5.8,4.8-9.5,6.3C308.2,70.1,304.3,70.8,300.3,70.8z M300.3,26c-2.1,0-4.1,0.4-5.9,1.3
			c-1.8,0.8-3.3,2-4.6,3.3c-1.3,1.4-2.3,3-3.1,4.9c-0.7,1.8-1.1,3.8-1.1,5.9c0,2,0.4,4,1.1,5.8c0.7,1.9,1.8,3.5,3.1,4.9
			c1.3,1.4,2.8,2.5,4.6,3.3s3.8,1.3,5.9,1.3c2.1,0,4.1-0.4,5.9-1.3c1.8-0.8,3.3-2,4.6-3.3c1.3-1.4,2.3-3,3.1-4.9
			c0.7-1.9,1.1-3.8,1.1-5.8c0-2.1-0.4-4-1.1-5.9c-0.7-1.8-1.8-3.5-3.1-4.9s-2.8-2.5-4.6-3.3C304.3,26.4,302.4,26,300.3,26z"/>
		<path fill="#FFFFFF" d="M362.6,39.7l22.1,29.4h-18.1l-15.3-18.8v18.8h-15.3V13.2h15.3V32l15.3-18.8h18.9L362.6,39.7z"/>
		<path fill="#FFFFFF" d="M434.3,48.7c0,2.5-0.4,4.9-1.3,7.2c-0.8,2.3-2,4.3-3.5,6.1c-1.5,1.8-3.3,3.4-5.4,4.7
			c-2.1,1.3-4.3,2.3-6.7,3.1c-1.1,0.3-2.1,0.6-3.2,0.8c-1.1,0.2-2.2,0.3-3.3,0.3c-1.1,0-2.2-0.1-3.3-0.3c-1.1-0.2-2.1-0.5-3.2-0.8
			c-2.4-0.7-4.6-1.7-6.7-3.1c-2.1-1.3-3.9-2.9-5.4-4.7c-1.5-1.8-2.7-3.9-3.5-6.1c-0.8-2.3-1.3-4.7-1.3-7.2V13.2h15.6v34.5
			c0,1.1,0.2,2,0.6,2.9c0.4,0.9,1,1.7,1.7,2.3c0.7,0.6,1.5,1.2,2.5,1.5c0.9,0.4,1.9,0.5,2.9,0.5c1.1,0,2.1-0.2,3-0.5
			c0.9-0.4,1.8-0.9,2.5-1.5c0.7-0.6,1.3-1.4,1.7-2.3c0.4-0.9,0.6-1.9,0.6-2.9V13.2h15.6V48.7z"/>
	</g>
	<rect x="90" y="13.2" fill="#FFFFFF" width="39.2" height="15"/>
	<polygon points="68,53 68,70 85.1,70 	"/>
</g>
</svg>
